<mxfile host="app.diagrams.net" modified="2023-05-30T21:11:03.435Z" agent="Mozilla/5.0 (Windows NT 10.0; Win64; x64) AppleWebKit/537.36 (KHTML, like Gecko) Chrome/113.0.0.0 Safari/537.36 Edg/113.0.1774.57" etag="CqNPUbxLVhYc4ZgZEnwz" version="21.3.5" type="gitlab">
  <diagram name="Page-1" id="0fa5L70-CMnjPJAzRhD-">
    <mxGraphModel dx="997" dy="468" grid="1" gridSize="10" guides="1" tooltips="1" connect="1" arrows="1" fold="1" page="1" pageScale="1" pageWidth="827" pageHeight="1169" math="0" shadow="0">
      <root>
        <mxCell id="0" />
        <mxCell id="1" parent="0" />
        <mxCell id="cOU9WgDjMBRvyW28e0TY-35" style="edgeStyle=orthogonalEdgeStyle;rounded=0;orthogonalLoop=1;jettySize=auto;html=1;shadow=0;shape=arrow;" parent="1" source="cOU9WgDjMBRvyW28e0TY-1" edge="1">
          <mxGeometry relative="1" as="geometry">
            <mxPoint x="480" y="880" as="targetPoint" />
          </mxGeometry>
        </mxCell>
        <mxCell id="cOU9WgDjMBRvyW28e0TY-1" value="" style="rounded=0;whiteSpace=wrap;html=1;" parent="1" vertex="1">
          <mxGeometry x="270" y="280" width="420" height="470" as="geometry" />
        </mxCell>
        <mxCell id="cOU9WgDjMBRvyW28e0TY-2" value="Package chef atelier" style="text;html=1;strokeColor=none;fillColor=none;align=center;verticalAlign=middle;whiteSpace=wrap;rounded=0;" parent="1" vertex="1">
          <mxGeometry x="360" y="290" width="220" height="30" as="geometry" />
        </mxCell>
        <mxCell id="cOU9WgDjMBRvyW28e0TY-4" value="" style="rounded=0;whiteSpace=wrap;html=1;" parent="1" vertex="1">
          <mxGeometry x="270" y="260" width="120" height="20" as="geometry" />
        </mxCell>
        <mxCell id="cOU9WgDjMBRvyW28e0TY-9" value="Chef d&#39;atelier" style="shape=umlActor;verticalLabelPosition=bottom;verticalAlign=top;html=1;outlineConnect=0;" parent="1" vertex="1">
          <mxGeometry x="175" y="348" width="30" height="60" as="geometry" />
        </mxCell>
        <mxCell id="cOU9WgDjMBRvyW28e0TY-16" style="edgeStyle=orthogonalEdgeStyle;rounded=0;orthogonalLoop=1;jettySize=auto;html=1;" parent="1" source="cOU9WgDjMBRvyW28e0TY-11" edge="1">
          <mxGeometry relative="1" as="geometry">
            <mxPoint x="190" y="460" as="targetPoint" />
          </mxGeometry>
        </mxCell>
        <mxCell id="cOU9WgDjMBRvyW28e0TY-11" value="administrateur" style="shape=umlActor;verticalLabelPosition=bottom;verticalAlign=top;html=1;outlineConnect=0;" parent="1" vertex="1">
          <mxGeometry x="175" y="600" width="30" height="60" as="geometry" />
        </mxCell>
        <mxCell id="cOU9WgDjMBRvyW28e0TY-23" value="Gérer les machines" style="ellipse;whiteSpace=wrap;html=1;" parent="1" vertex="1">
          <mxGeometry x="330" y="348" width="310" height="80" as="geometry" />
        </mxCell>
        <mxCell id="cOU9WgDjMBRvyW28e0TY-24" value="Gérer le rendement pour chaque opérateur par &lt;br&gt;machine" style="ellipse;whiteSpace=wrap;html=1;" parent="1" vertex="1">
          <mxGeometry x="340" y="505" width="310" height="80" as="geometry" />
        </mxCell>
        <mxCell id="cOU9WgDjMBRvyW28e0TY-25" value="Gérer les planification des ofs pour les étapes par machine" style="ellipse;whiteSpace=wrap;html=1;" parent="1" vertex="1">
          <mxGeometry x="330" y="630" width="305" height="80" as="geometry" />
        </mxCell>
        <mxCell id="cOU9WgDjMBRvyW28e0TY-26" value="&lt;span style=&quot;white-space: pre;&quot;&gt;&#x9;&lt;/span&gt;" style="rounded=0;whiteSpace=wrap;html=1;" parent="1" vertex="1">
          <mxGeometry x="265" y="890" width="420" height="140" as="geometry" />
        </mxCell>
        <mxCell id="cOU9WgDjMBRvyW28e0TY-27" value="" style="rounded=0;whiteSpace=wrap;html=1;" parent="1" vertex="1">
          <mxGeometry x="265" y="890" width="160" height="20" as="geometry" />
        </mxCell>
        <mxCell id="cOU9WgDjMBRvyW28e0TY-28" value="Package second rang" style="text;html=1;strokeColor=none;fillColor=none;align=center;verticalAlign=middle;whiteSpace=wrap;rounded=0;" parent="1" vertex="1">
          <mxGeometry x="240" y="885" width="190" height="30" as="geometry" />
        </mxCell>
        <mxCell id="cOU9WgDjMBRvyW28e0TY-29" value="S&#39;authentifier" style="ellipse;whiteSpace=wrap;html=1;" parent="1" vertex="1">
          <mxGeometry x="360" y="930" width="230" height="60" as="geometry" />
        </mxCell>
        <mxCell id="7OkkPtmlRjPJ8DZ0SXFZ-4" value="" style="endArrow=none;html=1;rounded=0;entryX=0;entryY=0.5;entryDx=0;entryDy=0;" parent="1" target="cOU9WgDjMBRvyW28e0TY-23" edge="1">
          <mxGeometry width="50" height="50" relative="1" as="geometry">
            <mxPoint x="230" y="420" as="sourcePoint" />
            <mxPoint x="330" y="420" as="targetPoint" />
          </mxGeometry>
        </mxCell>
        <mxCell id="7OkkPtmlRjPJ8DZ0SXFZ-5" value="" style="endArrow=none;html=1;rounded=0;entryX=0;entryY=0.5;entryDx=0;entryDy=0;" parent="1" target="cOU9WgDjMBRvyW28e0TY-24" edge="1">
          <mxGeometry width="50" height="50" relative="1" as="geometry">
            <mxPoint x="220" y="430" as="sourcePoint" />
            <mxPoint x="340" y="430" as="targetPoint" />
          </mxGeometry>
        </mxCell>
        <mxCell id="7OkkPtmlRjPJ8DZ0SXFZ-6" value="" style="endArrow=none;html=1;rounded=0;entryX=0;entryY=0.5;entryDx=0;entryDy=0;" parent="1" edge="1" target="cOU9WgDjMBRvyW28e0TY-25">
          <mxGeometry width="50" height="50" relative="1" as="geometry">
            <mxPoint x="210" y="440" as="sourcePoint" />
            <mxPoint x="320" y="730" as="targetPoint" />
          </mxGeometry>
        </mxCell>
      </root>
    </mxGraphModel>
  </diagram>
</mxfile>
